<svg xmlns="http://www.w3.org/2000/svg" xmlns:osb="http://www.openswatchbook.org/uri/2009/osb" xmlns:svg="http://www.w3.org/2000/svg" xmlns:xlink="http://www.w3.org/1999/xlink" id="svg8" width="207.559" height="257.742" version="1.1" viewBox="0 0 54.917 68.194"><defs id="defs2"><linearGradient id="linearGradient6203"><stop style="stop-color:#f0f8a0;stop-opacity:1" id="stop6201" offset="0"/><stop id="stop6272" offset=".75" style="stop-color:#c1e0a4;stop-opacity:1"/><stop style="stop-color:#5aab7b;stop-opacity:1" id="stop6199" offset="1"/></linearGradient><linearGradient id="linearGradient6195"><stop id="stop6191" offset="0" style="stop-color:#0f5499;stop-opacity:1"/><stop id="stop6193" offset="1" style="stop-color:#0ed6ff;stop-opacity:1"/></linearGradient><linearGradient id="linearGradient6119" osb:paint="solid"><stop id="stop6117" offset="0" style="stop-color:#75af89;stop-opacity:1"/></linearGradient><linearGradient id="linearGradient6197" x1="87.313" x2="109.802" y1="236.146" y2="199.104" gradientTransform="translate(-42.33333,27.781253)" gradientUnits="userSpaceOnUse" xlink:href="#linearGradient6195"/><radialGradient id="radialGradient6287" cx="93.458" cy="230.917" r="20.844" fx="93.458" fy="230.917" gradientTransform="matrix(-2.0309823,-8.6890853e-7,7.0332774e-7,-1.6935434,253.83964,637.53298)" gradientUnits="userSpaceOnUse" xlink:href="#linearGradient6203"/><radialGradient id="radialGradient6314" cx="93.458" cy="230.917" r="20.844" fx="93.458" fy="230.917" gradientTransform="matrix(-2.0309823,-8.6890853e-7,7.0332774e-7,-1.6935434,253.83964,637.53298)" gradientUnits="userSpaceOnUse" xlink:href="#linearGradient6203"/><linearGradient id="linearGradient6316" x1="87.313" x2="109.802" y1="236.146" y2="199.104" gradientTransform="translate(-42.33333,27.781253)" gradientUnits="userSpaceOnUse" xlink:href="#linearGradient6195"/></defs><metadata id="metadata5"/><g style="display:inline" id="layer2" transform="translate(-22.812503,-211.33333)"><text id="clangd" x="87.181" y="259.771" xml:space="preserve" style="font-style:normal;font-weight:400;font-size:10.58333302px;line-height:1.25;font-family:sans-serif;letter-spacing:0;word-spacing:0;display:inline;fill:#000;fill-opacity:1;stroke:none;stroke-width:.26458332"><tspan style="font-style:normal;font-variant:normal;font-weight:400;font-stretch:normal;font-size:25.39999962px;font-family:'Noto Sans Mono';-inkscape-font-specification:'Noto Sans Mono, Normal';font-variant-ligatures:normal;font-variant-caps:normal;font-variant-numeric:normal;font-feature-settings:normal;text-align:start;writing-mode:lr-tb;text-anchor:start;stroke-width:.26458332" id="tspan6291" x="87.181" y="259.771">clangd</tspan></text><g id="CD" style="display:inline"><path style="display:inline;fill:url(#radialGradient6314);fill-opacity:1;stroke:#055f25;stroke-width:2;stroke-linecap:round;stroke-linejoin:round;stroke-miterlimit:4;stroke-dasharray:none;stroke-opacity:1" id="C" d="M 63.5,225.5625 H 50.270837 c -13.229167,0 -26.458334,6.61458 -26.458334,26.45834 0,19.84374 13.229167,26.55586 26.599104,26.50658 L 63.5,278.47922 l 4e-5,-13.22917 H 50.270837 c 0,0 -12.705299,1e-4 -12.964614,-13.09685 -0.264553,-13.36153 12.964614,-13.36153 12.964614,-13.36153 H 63.5 Z"/><path style="fill:url(#linearGradient6316);fill-opacity:1;stroke:#0d386b;stroke-width:2;stroke-linecap:butt;stroke-linejoin:miter;stroke-miterlimit:4;stroke-dasharray:none;stroke-opacity:1" id="D" d="m 64.82292,212.33333 h 10.58333 c 0.62363,0 1.32292,0.69929 1.32292,1.32292 v 50.27083 c 0,0.62363 -0.69929,1.32292 -1.32292,1.32292 H 63.5 50.270837 c 0,0 -12.612556,-1.5e-4 -12.924189,-13.37203 -0.304978,-13.0863 12.924189,-13.0863 12.924189,-13.0863 H 63.5 v -25.13542 c 0,-0.62363 0.69929,-1.32292 1.32292,-1.32292 z"/></g></g></svg>